<svg version="1.1" id="Layer_1" xmlns="http://www.w3.org/2000/svg" xmlns:xlink="http://www.w3.org/1999/xlink" x="0px" y="0px"
	 width="100%" viewBox="0 0 690 216" enable-background="new 0 0 690 216" xml:space="preserve">
<path fill="#FEFEFE" opacity="1.000000" stroke="none" 
	d="
M485.000000,217.000000 
	C323.377777,217.000000 162.255539,217.000000 1.066658,217.000000 
	C1.066658,145.064346 1.066658,73.128609 1.066658,1.096437 
	C230.999985,1.096437 460.999969,1.096437 690.971436,1.096437 
	C690.971436,73.077827 690.971436,145.038925 690.971436,217.000000 
	C622.461853,217.000000 553.980957,217.000000 485.000000,217.000000 
M176.161087,98.143715 
	C176.161087,98.143715 176.349716,98.295959 176.806580,98.203651 
	C177.114624,98.057709 177.292435,97.815979 177.347839,97.396622 
	C177.347839,97.396622 177.429169,97.384583 177.968597,97.240501 
	C178.349258,96.857727 178.729904,96.474953 179.029327,96.009697 
	C179.029327,96.009697 179.074081,96.116470 179.598053,96.035316 
	C179.824081,95.787392 180.050110,95.539467 180.003540,95.046837 
	C180.003540,95.046837 180.259003,95.309624 181.022293,95.161240 
	C187.065277,94.031601 193.108246,92.901962 199.377258,91.730072 
	C199.377258,84.222214 199.377258,75.790398 199.377258,66.652008 
	C196.824295,67.555099 194.872391,68.245560 192.967499,69.002838 
	C192.967499,69.002838 192.957809,68.921738 192.329605,68.911079 
	C191.834625,69.225365 191.339661,69.539650 190.948669,69.960281 
	C190.948669,69.960281 190.889618,69.823776 190.262619,69.873344 
	C189.784927,70.220139 189.307236,70.566940 188.155777,71.042053 
	C177.121307,76.521515 174.644699,87.750168 169.827454,97.702995 
	C169.827454,87.572121 169.827454,77.441246 169.827454,67.110146 
	C164.271606,67.110146 159.134857,67.001900 154.005432,67.148872 
	C150.685303,67.244003 147.375885,67.712341 143.799744,68.917015 
	C143.799744,97.481621 143.799744,126.046219 143.799744,154.715378 
	C152.705124,154.715378 161.248474,154.715378 170.436371,154.715378 
	C170.436371,140.645660 170.436371,126.864143 170.795456,112.656258 
	C170.829575,112.106354 170.863678,111.556458 171.096970,110.328796 
	C171.177032,109.629082 171.257095,108.929375 171.046982,108.026329 
	C171.046982,108.026329 171.318253,108.254234 171.811249,107.756805 
	C172.239746,106.182968 172.668243,104.609138 173.541183,102.705833 
	C173.719788,102.191406 173.898392,101.676987 174.601288,100.923698 
	C174.871582,100.426979 175.141861,99.930267 175.437744,99.348267 
	C175.437744,99.348267 175.524368,99.327652 175.945160,99.148598 
	C176.193985,98.934822 176.315170,98.663948 176.161087,98.143715 
M350.302795,127.759247 
	C350.302795,127.759247 350.449341,127.685059 350.266571,127.116005 
	C349.945099,126.639656 349.623657,126.163307 349.257141,125.828812 
	C349.257141,125.828812 349.397797,125.780098 349.221619,125.134262 
	C348.838226,124.354202 348.454865,123.574135 348.134674,122.366806 
	C348.134674,122.366806 347.923737,121.989914 348.011597,121.485580 
	C347.983002,121.317345 347.954437,121.149117 348.004028,120.923393 
	C348.004028,120.923393 347.944855,120.846512 348.821503,120.461365 
	C369.817902,120.461365 390.814301,120.461365 413.191223,120.461365 
	C412.361603,113.303154 411.592712,106.668922 410.915466,99.456970 
	C410.629669,98.964111 410.343842,98.471252 410.099976,97.287529 
	C409.751892,96.470886 409.403839,95.654243 409.109406,94.387573 
	C409.109406,94.387573 408.894989,93.988297 408.958252,93.451126 
	C408.734406,93.190559 408.510559,92.929993 408.240784,92.808144 
	C408.240784,92.808144 408.378448,92.759171 408.211517,92.099640 
	C407.475128,90.731239 406.738708,89.362846 406.000000,88.000000 
	C406.000000,88.000000 406.003906,87.999069 405.956909,87.416588 
	C405.672852,87.168930 405.388824,86.921272 405.026337,86.004669 
	C402.276398,82.929825 399.870667,79.433243 396.713959,76.856697 
	C385.876038,68.010529 373.214661,65.842262 359.689941,67.907570 
	C342.284088,70.565544 329.896820,80.116188 324.207672,96.692001 
	C318.496552,113.331802 320.534607,129.466965 333.266449,142.479050 
	C347.158630,156.677002 364.670715,159.236176 383.454498,155.400589 
	C393.274597,153.395386 401.416260,148.456253 407.871979,140.610031 
	C402.646301,136.366776 397.766235,132.404144 392.734863,128.318680 
	C382.385712,137.436523 370.871429,139.232147 357.947998,134.351135 
	C357.362061,134.112137 356.776093,133.873138 356.148132,133.801636 
	C356.148132,133.801636 356.317474,133.767868 356.063110,133.273407 
	C355.723053,133.132446 355.383026,132.991470 354.811859,132.271133 
	C353.597870,131.159988 352.383911,130.048843 351.030243,128.406143 
	C350.801941,128.137619 350.573639,127.869095 350.302795,127.759247 
M210.804764,68.919014 
	C210.793594,83.185249 210.740402,97.451607 210.783127,111.717682 
	C210.825317,125.806030 210.964508,139.894089 211.398453,154.781830 
	C217.455948,154.818893 223.514877,154.945755 229.570236,154.848755 
	C231.988373,154.810013 234.398621,154.277313 236.993942,153.051086 
	C236.933243,124.715981 236.872543,96.380882 236.567032,67.216888 
	C231.163818,67.181175 225.758209,67.035088 220.358322,67.152283 
	C217.256088,67.219604 214.163132,67.713722 210.804764,68.919014 
M263.046112,130.796234 
	C264.278503,144.728027 268.663696,151.230011 278.798370,153.662460 
	C288.575348,156.009064 298.218658,155.029587 307.572235,151.585388 
	C308.903961,151.095016 310.533051,149.207108 310.607239,147.886398 
	C310.936768,142.020844 310.750061,136.126312 310.750061,130.159302 
	C296.879517,135.696930 293.516144,135.190826 289.070648,126.072960 
	C289.010712,113.726227 288.950775,101.379486 289.384521,88.308525 
	C296.525269,88.055847 303.666016,87.803169 310.639404,87.556404 
	C310.639404,80.061417 310.639404,73.679970 310.639404,67.102631 
	C291.363739,67.102631 272.440887,67.095848 253.518204,67.140717 
	C253.031906,67.141869 252.546951,67.709045 251.803894,68.916908 
	C251.803894,75.176285 251.803894,81.435661 251.803894,87.964783 
	C255.434265,87.964783 258.708649,87.964783 262.381256,88.264435 
	C262.635101,88.482758 262.852936,88.732475 262.918793,89.942482 
	C263.003845,103.280121 263.088867,116.617760 263.046112,130.796234 
M547.996155,153.051483 
	C548.057495,136.048187 548.118774,119.044884 548.678711,101.548065 
	C549.755432,96.077309 552.882690,92.314079 558.159851,90.501251 
	C569.683105,86.542770 578.685791,92.386078 580.190735,105.619507 
	C580.225403,120.508629 580.213989,135.398224 580.366760,150.286148 
	C580.381897,151.756897 581.400940,153.217361 582.574524,154.868469 
	C582.996643,154.803833 583.418823,154.739197 584.750916,154.844269 
	C590.999878,154.850754 597.251648,154.953522 603.495117,154.771790 
	C604.574219,154.740387 605.618225,153.502625 606.862122,151.926407 
	C606.869202,134.571213 606.899597,117.215958 606.850647,99.860931 
	C606.845215,97.918121 606.389709,95.976585 606.241943,93.233597 
	C606.075134,92.175369 605.908325,91.117142 605.701721,89.342102 
	C598.576721,68.096840 573.528259,60.229015 555.482178,73.623764 
	C552.862915,75.567932 550.501587,77.859772 548.009216,79.054985 
	C548.009216,65.312683 548.009216,51.570381 548.009216,38.034279 
	C538.933655,38.034279 530.507935,38.034279 521.777710,38.034279 
	C521.777710,39.916325 521.777710,41.551113 521.777710,43.185905 
	C521.777466,75.636589 521.766357,108.087288 521.789612,140.537949 
	C521.792847,145.019028 521.966125,149.499985 522.393982,154.783218 
	C528.455750,154.820145 534.518921,154.946732 540.578552,154.849808 
	C542.997192,154.811127 545.407837,154.279068 547.996155,153.051483 
M60.974575,184.081009 
	C60.974575,171.015121 60.974575,157.949219 60.974575,144.045425 
	C62.331165,145.282745 63.041252,145.888000 63.704105,146.541199 
	C77.801956,160.433853 101.630486,158.195572 113.892654,149.232864 
	C131.905319,136.066956 134.611282,117.174782 130.235046,98.323708 
	C125.808884,79.257599 109.435165,67.129646 89.893044,66.986626 
	C78.480736,66.903107 69.085197,71.220253 60.871483,80.703545 
	C60.871483,75.453156 60.871483,71.414345 60.871483,67.109871 
	C56.253162,67.109871 52.115940,66.996002 47.987820,67.141090 
	C43.639797,67.293907 39.300476,67.694160 34.606125,68.868286 
	C34.606125,107.908951 34.606125,146.949615 34.606125,186.225723 
	C43.196777,186.225723 51.169174,186.250381 59.140594,186.173355 
	C59.705276,186.167892 60.262730,185.414291 60.974575,184.081009 
M498.474854,150.054184 
	C502.776123,146.727051 507.077362,143.399933 511.614594,139.890259 
	C505.360626,135.148468 499.722107,130.873306 494.200287,126.686630 
	C476.195343,140.370117 466.832092,138.656982 455.709900,128.455704 
	C446.855164,120.334175 447.283051,104.802071 455.361237,95.792007 
	C464.703156,85.372322 477.391144,85.974045 493.162354,97.751175 
	C499.105682,92.981453 505.104950,88.166855 511.168579,83.300583 
	C497.384766,69.266800 481.003204,65.423874 462.453491,67.924980 
	C428.906372,72.448219 411.934357,111.029266 431.762146,138.014008 
	C445.855865,157.194901 476.192444,162.891357 498.474854,150.054184 
M233.500031,56.049843 
	C259.215851,56.049843 284.931671,56.049843 310.701385,56.049843 
	C310.701385,49.648346 310.701385,43.908634 310.701385,38.170891 
	C277.258514,38.170891 244.122787,38.170891 211.165039,38.170891 
	C211.165039,44.359455 211.165039,50.081364 211.165039,56.049862 
	C218.556808,56.049862 225.528458,56.049862 233.500031,56.049843 
M619.670044,149.562546 
	C623.046753,155.243378 628.619629,154.726212 633.736511,153.836014 
	C638.201294,153.059250 640.373352,149.280045 641.188293,144.888580 
	C642.093750,140.008865 640.423157,136.088150 636.582031,133.124588 
	C632.614441,130.063507 626.167969,130.209564 622.212708,133.277054 
	C617.562683,136.883377 616.495300,142.375397 619.670044,149.562546 
z"/>
<path fill="#12153B" opacity="1.000000" stroke="none" 
	d="
M34.957352,67.986298 
	C39.300476,67.694160 43.639797,67.293907 47.987820,67.141090 
	C52.115940,66.996002 56.253162,67.109871 60.871483,67.109871 
	C60.871483,71.414345 60.871483,75.453156 60.871483,80.703545 
	C69.085197,71.220253 78.480736,66.903107 89.893044,66.986626 
	C109.435165,67.129646 125.808884,79.257599 130.235046,98.323708 
	C134.611282,117.174782 131.905319,136.066956 113.892654,149.232864 
	C101.630486,158.195572 77.801956,160.433853 63.704105,146.541199 
	C63.041252,145.888000 62.331165,145.282745 60.974575,144.045425 
	C60.974575,157.949219 60.974575,171.015121 60.441708,184.541168 
	C53.751129,184.998962 47.574837,184.703262 41.441883,185.091705 
	C36.943264,185.376648 35.880142,183.832916 35.901554,179.482925 
	C36.075230,144.201675 36.017056,108.919197 35.957783,73.637222 
	C35.954617,71.753029 35.305672,69.869911 34.957352,67.986298 
M69.202721,122.062241 
	C70.031967,123.303719 70.776146,124.613129 71.704369,125.775581 
	C77.456596,132.979309 87.852448,135.548645 96.454292,131.941299 
	C105.081284,128.323395 111.128998,118.636322 109.787575,110.074249 
	C108.365173,100.995384 103.565987,94.325317 94.550591,91.605774 
	C86.028519,89.035049 78.292175,91.068878 72.351707,97.734268 
	C66.147049,104.696106 65.103104,112.749641 69.202721,122.062241 
z"/>
<path fill="#13173C" opacity="1.000000" stroke="none" 
	d="
M606.142883,94.034462 
	C606.389709,95.976585 606.845215,97.918121 606.850647,99.860931 
	C606.899597,117.215958 606.869202,134.571213 606.257935,152.418365 
	C599.939148,152.940155 594.219971,152.853622 588.512756,153.075409 
	C586.937195,153.136642 585.397217,154.116302 583.840942,154.674545 
	C583.418823,154.739197 582.996643,154.803833 582.291565,154.251465 
	C582.007324,139.111206 582.061890,124.587463 581.931519,110.065369 
	C581.915833,108.315147 580.898438,106.573921 580.345337,104.828529 
	C578.685791,92.386078 569.683105,86.542770 558.159851,90.501251 
	C552.882690,92.314079 549.755432,96.077309 548.087158,102.041092 
	C547.330750,103.331772 547.023560,104.129158 547.021973,104.927155 
	C546.991394,120.191551 546.979980,135.456085 547.030457,150.720352 
	C547.033997,151.804962 547.546387,152.887878 547.822144,153.971588 
	C545.407837,154.279068 542.997192,154.811127 540.578552,154.849808 
	C534.518921,154.946732 528.455750,154.820145 522.517212,154.084198 
	C522.761169,143.079880 522.966248,132.774750 522.985962,122.469254 
	C523.035889,96.327354 523.072449,70.184921 522.926025,44.043751 
	C522.904541,40.206085 523.829590,38.618752 527.920654,38.922134 
	C532.557495,39.265987 537.250671,39.201519 541.898071,38.938351 
	C545.659363,38.725361 547.217163,39.689327 547.094360,43.865467 
	C546.790894,54.180149 546.946533,64.510139 547.038757,74.832901 
	C547.054199,76.554970 547.678162,78.271606 548.020874,79.990746 
	C550.501587,77.859772 552.862915,75.567932 555.482178,73.623764 
	C573.528259,60.229015 598.576721,68.096840 605.504150,89.950424 
	C605.585388,91.717323 605.864136,92.875893 606.142883,94.034462 
z"/>
<path fill="#12153B" opacity="1.000000" stroke="none" 
	d="
M410.058044,97.978394 
	C410.343842,98.471252 410.629669,98.964111 410.615967,100.034332 
	C410.543457,105.029762 410.585541,109.467377 411.050140,113.860306 
	C411.502106,118.134026 409.730194,119.123940 405.702759,119.078835 
	C388.123108,118.881966 370.539612,118.944366 352.958740,119.075165 
	C351.283142,119.087631 349.615936,120.229149 347.944855,120.846512 
	C347.944855,120.846512 348.004028,120.923393 347.807861,121.048897 
	C347.550323,121.279739 347.411774,121.440872 347.440674,121.480919 
	C347.576508,121.668800 347.758362,121.823410 347.923737,121.989914 
	C347.923737,121.989914 348.134674,122.366806 348.096436,122.954330 
	C348.504761,124.287933 348.951294,125.034012 349.397797,125.780090 
	C349.397797,125.780098 349.257141,125.828812 349.220032,126.104233 
	C349.605072,126.814781 350.027222,127.249916 350.449341,127.685059 
	C350.449341,127.685059 350.302795,127.759247 350.324463,127.971367 
	C350.620758,128.434891 350.895355,128.686279 351.169952,128.937683 
	C352.383911,130.048843 353.597870,131.159988 355.054321,132.814056 
	C355.637024,133.493942 355.977264,133.630905 356.317474,133.767868 
	C356.317474,133.767868 356.148132,133.801636 356.272095,134.044937 
	C357.016571,134.494919 357.637085,134.701584 358.257629,134.908264 
	C370.871429,139.232147 382.385712,137.436523 392.734863,128.318680 
	C397.766235,132.404144 402.646301,136.366776 407.871979,140.610031 
	C401.416260,148.456253 393.274597,153.395386 383.454498,155.400589 
	C364.670715,159.236176 347.158630,156.677002 333.266449,142.479050 
	C320.534607,129.466965 318.496552,113.331802 324.207672,96.692001 
	C329.896820,80.116188 342.284088,70.565544 359.689941,67.907570 
	C373.214661,65.842262 385.876038,68.010529 396.713959,76.856697 
	C399.870667,79.433243 402.276398,82.929825 405.130676,86.612000 
	C405.491302,87.479248 405.747589,87.739166 406.003906,87.999069 
	C406.003906,87.999069 406.000000,88.000000 406.009949,88.381393 
	C406.806091,90.094910 407.592285,91.427040 408.378448,92.759171 
	C408.378448,92.759171 408.240784,92.808144 408.258484,92.999825 
	C408.482483,93.457100 408.688751,93.722694 408.894989,93.988297 
	C408.894989,93.988297 409.109406,94.387573 409.079865,94.969040 
	C409.386230,96.359802 409.722137,97.169098 410.058044,97.978394 
M355.987976,90.348053 
	C351.365265,94.091988 348.394714,98.719719 347.820374,104.878586 
	C361.024658,104.878586 373.817993,104.878586 386.636566,104.878586 
	C383.558655,88.777374 370.658417,82.415367 355.987976,90.348053 
z"/>
<path fill="#12163B" opacity="1.000000" stroke="none" 
	d="
M498.154663,150.237457 
	C476.192444,162.891357 445.855865,157.194901 431.762146,138.014008 
	C411.934357,111.029266 428.906372,72.448219 462.453491,67.924980 
	C481.003204,65.423874 497.384766,69.266800 511.168579,83.300583 
	C505.104950,88.166855 499.105682,92.981453 493.162354,97.751175 
	C477.391144,85.974045 464.703156,85.372322 455.361237,95.792007 
	C447.283051,104.802071 446.855164,120.334175 455.709900,128.455704 
	C466.832092,138.656982 476.195343,140.370117 494.200287,126.686630 
	C499.722107,130.873306 505.360626,135.148468 511.614594,139.890259 
	C507.077362,143.399933 502.776123,146.727051 498.154663,150.237457 
z"/>
<path fill="#13163C" opacity="1.000000" stroke="none" 
	d="
M263.034790,89.013580 
	C262.852936,88.732475 262.635101,88.482758 261.899597,87.823425 
	C258.709290,87.100807 256.000641,86.819191 253.000610,86.507286 
	C253.000610,84.237175 253.091660,82.427505 252.982346,80.630020 
	C252.726410,76.420990 252.374435,72.217804 252.061340,68.012253 
	C252.546951,67.709045 253.031906,67.141869 253.518204,67.140717 
	C272.440887,67.095848 291.363739,67.102631 310.639404,67.102631 
	C310.639404,73.679970 310.639404,80.061417 310.639404,87.556404 
	C303.666016,87.803169 296.525269,88.055847 288.858154,88.975037 
	C288.226349,101.382576 288.102844,113.123550 288.059723,124.864822 
	C288.057098,125.579147 288.692688,126.295815 289.031342,127.011383 
	C293.516144,135.190826 296.879517,135.696930 310.750061,130.159302 
	C310.750061,136.126312 310.936768,142.020844 310.607239,147.886398 
	C310.533051,149.207108 308.903961,151.095016 307.572235,151.585388 
	C298.218658,155.029587 288.575348,156.009064 278.798370,153.662460 
	C268.663696,151.230011 264.278503,144.728027 263.373566,130.060349 
	C263.797333,116.612671 263.909576,103.900932 263.948547,91.188965 
	C263.950745,90.464775 263.353210,89.738754 263.034790,89.013580 
z"/>
<path fill="#12163B" opacity="1.000000" stroke="none" 
	d="
M170.897766,111.006554 
	C170.863678,111.556458 170.829575,112.106354 170.238678,113.072227 
	C169.453888,115.259087 169.039734,117.028801 169.028503,118.801064 
	C168.963257,129.101013 168.895187,139.403015 169.048416,149.701035 
	C169.095657,152.876038 168.203171,154.206085 164.846588,154.052917 
	C159.872940,153.825989 154.862732,153.731827 149.902924,154.078888 
	C145.811981,154.365158 144.900482,152.786285 144.922897,148.964722 
	C145.070053,123.879257 145.018860,98.792465 144.958115,73.706284 
	C144.953506,71.807953 144.373947,69.911026 144.061661,68.013443 
	C147.375885,67.712341 150.685303,67.244003 154.005432,67.148872 
	C159.134857,67.001900 164.271606,67.110146 169.827454,67.110146 
	C169.827454,77.441246 169.827454,87.572121 169.827454,97.702995 
	C174.644699,87.750168 177.121307,76.521515 188.809937,70.976601 
	C189.939255,70.548691 190.414429,70.186226 190.889618,69.823776 
	C190.889618,69.823776 190.948669,69.960281 191.207367,69.925949 
	C191.963303,69.568329 192.460556,69.245033 192.957809,68.921738 
	C192.957809,68.921738 192.967499,69.002838 193.385193,68.994720 
	C197.007385,68.467491 198.284531,69.735664 198.124191,73.050049 
	C197.909332,77.491066 197.854614,81.964180 198.138184,86.397476 
	C198.378143,90.149048 196.870316,90.814987 193.357819,91.275955 
	C188.892014,91.862015 184.616531,93.898483 180.259003,95.309624 
	C180.259003,95.309624 180.003540,95.046837 179.878021,95.195572 
	C179.526352,95.601700 179.300217,95.859085 179.074081,96.116470 
	C179.074081,96.116470 179.029327,96.009697 178.757812,96.061630 
	C178.133926,96.537239 177.781540,96.960915 177.429169,97.384583 
	C177.429169,97.384583 177.347839,97.396622 177.085892,97.426239 
	C176.665863,97.735893 176.507797,98.015930 176.349716,98.295959 
	C176.349716,98.295959 176.161087,98.143715 175.981262,98.280930 
	C175.709091,98.721313 175.616730,99.024483 175.524368,99.327652 
	C175.524368,99.327652 175.437744,99.348267 175.111145,99.423409 
	C174.548706,100.053215 174.312851,100.607887 174.076996,101.162560 
	C173.898392,101.676987 173.719788,102.191406 172.997437,103.057709 
	C172.075195,105.024467 171.696716,106.639351 171.318237,108.254234 
	C171.318253,108.254234 171.046982,108.026329 170.902161,108.210281 
	C170.804138,109.264999 170.850952,110.135780 170.897766,111.006554 
z"/>
<path fill="#12153C" opacity="1.000000" stroke="none" 
	d="
M236.812454,153.969467 
	C234.398621,154.277313 231.988373,154.810013 229.570236,154.848755 
	C223.514877,154.945755 217.455948,154.818893 211.518707,154.083160 
	C211.758255,152.738480 211.981400,152.092545 211.981888,151.446426 
	C212.001602,124.869652 212.013855,98.292831 211.963760,71.716141 
	C211.961426,70.482101 211.378510,69.249161 211.066010,68.015709 
	C214.163132,67.713722 217.256088,67.219604 220.358322,67.152283 
	C225.758209,67.035088 231.163818,67.181175 236.426834,67.947601 
	C236.190170,69.328865 236.009674,69.979370 236.009354,70.629967 
	C235.995819,97.158272 235.987442,123.686615 236.033661,150.214844 
	C236.035843,151.466843 236.541351,152.717941 236.812454,153.969467 
z"/>
<path fill="#08A7A5" opacity="1.000000" stroke="none" 
	d="
M233.000061,56.049850 
	C225.528458,56.049862 218.556808,56.049862 211.165039,56.049862 
	C211.165039,50.081364 211.165039,44.359455 211.165039,38.170891 
	C244.122787,38.170891 277.258514,38.170891 310.701385,38.170891 
	C310.701385,43.908634 310.701385,49.648346 310.701385,56.049843 
	C284.931671,56.049843 259.215851,56.049843 233.000061,56.049850 
z"/>
<path fill="#13163B" opacity="1.000000" stroke="none" 
	d="
M619.419128,149.252182 
	C616.495300,142.375397 617.562683,136.883377 622.212708,133.277054 
	C626.167969,130.209564 632.614441,130.063507 636.582031,133.124588 
	C640.423157,136.088150 642.093750,140.008865 641.188293,144.888580 
	C640.373352,149.280045 638.201294,153.059250 633.736511,153.836014 
	C628.619629,154.726212 623.046753,155.243378 619.419128,149.252182 
z"/>
<path fill="#00031F" opacity="1.000000" stroke="none" 
	d="
M548.015015,79.522873 
	C547.678162,78.271606 547.054199,76.554970 547.038757,74.832901 
	C546.946533,64.510139 546.790894,54.180149 547.094360,43.865467 
	C547.217163,39.689327 545.659363,38.725361 541.898071,38.938351 
	C537.250671,39.201519 532.557495,39.265987 527.920654,38.922134 
	C523.829590,38.618752 522.904541,40.206085 522.926025,44.043751 
	C523.072449,70.184921 523.035889,96.327354 522.985962,122.469254 
	C522.966248,132.774750 522.761169,143.079880 522.350586,153.683075 
	C521.966125,149.499985 521.792847,145.019028 521.789612,140.537949 
	C521.766357,108.087288 521.777466,75.636589 521.777710,43.185905 
	C521.777710,41.551113 521.777710,39.916325 521.777710,38.034279 
	C530.507935,38.034279 538.933655,38.034279 548.009216,38.034279 
	C548.009216,51.570381 548.009216,65.312683 548.015015,79.522873 
z"/>
<path fill="#0D0E2D" opacity="1.000000" stroke="none" 
	d="
M348.383179,120.653946 
	C349.615936,120.229149 351.283142,119.087631 352.958740,119.075165 
	C370.539612,118.944366 388.123108,118.881966 405.702759,119.078835 
	C409.730194,119.123940 411.502106,118.134026 411.050140,113.860306 
	C410.585541,109.467377 410.543457,105.029762 410.570129,100.323196 
	C411.592712,106.668922 412.361603,113.303154 413.191223,120.461365 
	C390.814301,120.461365 369.817902,120.461365 348.383179,120.653946 
z"/>
<path fill="#01021D" opacity="1.000000" stroke="none" 
	d="
M143.930695,68.465225 
	C144.373947,69.911026 144.953506,71.807953 144.958115,73.706284 
	C145.018860,98.792465 145.070053,123.879257 144.922897,148.964722 
	C144.900482,152.786285 145.811981,154.365158 149.902924,154.078888 
	C154.862732,153.731827 159.872940,153.825989 164.846588,154.052917 
	C168.203171,154.206085 169.095657,152.876038 169.048416,149.701035 
	C168.895187,139.403015 168.963257,129.101013 169.028503,118.801064 
	C169.039734,117.028801 169.453888,115.259087 170.059143,113.285416 
	C170.436371,126.864143 170.436371,140.645660 170.436371,154.715378 
	C161.248474,154.715378 152.705124,154.715378 143.799744,154.715378 
	C143.799744,126.046219 143.799744,97.481621 143.930695,68.465225 
z"/>
<path fill="#050526" opacity="1.000000" stroke="none" 
	d="
M34.781738,68.427292 
	C35.305672,69.869911 35.954617,71.753029 35.957783,73.637222 
	C36.017056,108.919197 36.075230,144.201675 35.901554,179.482925 
	C35.880142,183.832916 36.943264,185.376648 41.441883,185.091705 
	C47.574837,184.703262 53.751129,184.998962 60.366188,185.004959 
	C60.262730,185.414291 59.705276,186.167892 59.140594,186.173355 
	C51.169174,186.250381 43.196777,186.225723 34.606125,186.225723 
	C34.606125,146.949615 34.606125,107.908951 34.781738,68.427292 
z"/>
<path fill="#2E304B" opacity="1.000000" stroke="none" 
	d="
M180.640656,95.235428 
	C184.616531,93.898483 188.892014,91.862015 193.357819,91.275955 
	C196.870316,90.814987 198.378143,90.149048 198.138184,86.397476 
	C197.854614,81.964180 197.909332,77.491066 198.124191,73.050049 
	C198.284531,69.735664 197.007385,68.467491 193.361694,68.961319 
	C194.872391,68.245560 196.824295,67.555099 199.377258,66.652008 
	C199.377258,75.790398 199.377258,84.222214 199.377258,91.730072 
	C193.108246,92.901962 187.065277,94.031601 180.640656,95.235428 
z"/>
<path fill="#010220" opacity="1.000000" stroke="none" 
	d="
M236.903198,153.510284 
	C236.541351,152.717941 236.035843,151.466843 236.033661,150.214844 
	C235.987442,123.686615 235.995819,97.158272 236.009354,70.629967 
	C236.009674,69.979370 236.190170,69.328865 236.549240,68.362045 
	C236.872543,96.380882 236.933243,124.715981 236.903198,153.510284 
z"/>
<path fill="#020123" opacity="1.000000" stroke="none" 
	d="
M210.935394,68.467361 
	C211.378510,69.249161 211.961426,70.482101 211.963760,71.716141 
	C212.013855,98.292831 212.001602,124.869652 211.981888,151.446426 
	C211.981400,152.092545 211.758255,152.738480 211.350052,153.683380 
	C210.964508,139.894089 210.825317,125.806030 210.783127,111.717682 
	C210.740402,97.451607 210.793594,83.185249 210.935394,68.467361 
z"/>
<path fill="#0A0A2F" opacity="1.000000" stroke="none" 
	d="
M580.268066,105.224014 
	C580.898438,106.573921 581.915833,108.315147 581.931519,110.065369 
	C582.061890,124.587463 582.007324,139.111206 581.981323,154.158524 
	C581.400940,153.217361 580.381897,151.756897 580.366760,150.286148 
	C580.213989,135.398224 580.225403,120.508629 580.268066,105.224014 
z"/>
<path fill="#01021B" opacity="1.000000" stroke="none" 
	d="
M547.909180,153.511536 
	C547.546387,152.887878 547.033997,151.804962 547.030457,150.720352 
	C546.979980,135.456085 546.991394,120.191551 547.021973,104.927155 
	C547.023560,104.129158 547.330750,103.331772 547.837891,102.287842 
	C548.118774,119.044884 548.057495,136.048187 547.909180,153.511536 
z"/>
<path fill="#020121" opacity="1.000000" stroke="none" 
	d="
M262.976807,89.478027 
	C263.353210,89.738754 263.950745,90.464775 263.948547,91.188965 
	C263.909576,103.900932 263.797333,116.612671 263.437439,129.639923 
	C263.088867,116.617760 263.003845,103.280121 262.976807,89.478027 
z"/>
<path fill="#000220" opacity="1.000000" stroke="none" 
	d="
M289.050995,126.542175 
	C288.692688,126.295815 288.057098,125.579147 288.059723,124.864822 
	C288.102844,113.123550 288.226349,101.382576 288.611328,89.337143 
	C288.950775,101.379486 289.010712,113.726227 289.050995,126.542175 
z"/>
<path fill="#0A0A2F" opacity="1.000000" stroke="none" 
	d="
M584.295898,154.759399 
	C585.397217,154.116302 586.937195,153.136642 588.512756,153.075409 
	C594.219971,152.853622 599.939148,152.940155 606.166138,152.866211 
	C605.618225,153.502625 604.574219,154.740387 603.495117,154.771790 
	C597.251648,154.953522 590.999878,154.850754 584.295898,154.759399 
z"/>
<path fill="#01021E" opacity="1.000000" stroke="none" 
	d="
M251.932617,68.464577 
	C252.374435,72.217804 252.726410,76.420990 252.982346,80.630020 
	C253.091660,82.427505 253.000610,84.237175 253.000610,86.507286 
	C256.000641,86.819191 258.709290,87.100807 261.700500,87.673599 
	C258.708649,87.964783 255.434265,87.964783 251.803894,87.964783 
	C251.803894,81.435661 251.803894,75.176285 251.932617,68.464577 
z"/>
<path fill="#0D0E2D" opacity="1.000000" stroke="none" 
	d="
M408.294983,92.429405 
	C407.592285,91.427040 406.806091,90.094910 406.011108,88.378616 
	C406.738708,89.362846 407.475128,90.731239 408.294983,92.429405 
z"/>
<path fill="#2E304B" opacity="1.000000" stroke="none" 
	d="
M171.564743,108.005524 
	C171.696716,106.639351 172.075195,105.024467 172.775208,103.222443 
	C172.668243,104.609138 172.239746,106.182968 171.564743,108.005524 
z"/>
<path fill="#0A0A2F" opacity="1.000000" stroke="none" 
	d="
M606.192383,93.634033 
	C605.864136,92.875893 605.585388,91.717323 605.524109,90.308838 
	C605.908325,91.117142 606.075134,92.175369 606.192383,93.634033 
z"/>
<path fill="#2E304B" opacity="1.000000" stroke="none" 
	d="
M170.997375,110.667679 
	C170.850952,110.135780 170.804138,109.264999 171.047241,108.311943 
	C171.257095,108.929375 171.177032,109.629082 170.997375,110.667679 
z"/>
<path fill="#0D0E2D" opacity="1.000000" stroke="none" 
	d="
M410.079010,97.632957 
	C409.722137,97.169098 409.386230,96.359802 409.053040,95.194061 
	C409.403839,95.654243 409.751892,96.470886 410.079010,97.632957 
z"/>
<path fill="#0D0E2D" opacity="1.000000" stroke="none" 
	d="
M349.309692,125.457176 
	C348.951294,125.034012 348.504761,124.287933 348.064880,123.167961 
	C348.454865,123.574135 348.838226,124.354202 349.309692,125.457176 
z"/>
<path fill="#2E304B" opacity="1.000000" stroke="none" 
	d="
M192.643707,68.916405 
	C192.460556,69.245033 191.963303,69.568329 191.155365,69.872787 
	C191.339661,69.539650 191.834625,69.225365 192.643707,68.916405 
z"/>
<path fill="#2E304B" opacity="1.000000" stroke="none" 
	d="
M177.698883,97.312546 
	C177.781540,96.960915 178.133926,96.537239 178.798431,96.102875 
	C178.729904,96.474953 178.349258,96.857727 177.698883,97.312546 
z"/>
<path fill="#0D0E2D" opacity="1.000000" stroke="none" 
	d="
M358.102814,134.629700 
	C357.637085,134.701584 357.016571,134.494919 356.293091,133.961182 
	C356.776093,133.873138 357.362061,134.112137 358.102814,134.629700 
z"/>
<path fill="#0D0E2D" opacity="1.000000" stroke="none" 
	d="
M350.357971,127.400528 
	C350.027222,127.249916 349.605072,126.814781 349.242584,126.033310 
	C349.623657,126.163307 349.945099,126.639656 350.357971,127.400528 
z"/>
<path fill="#2E304B" opacity="1.000000" stroke="none" 
	d="
M174.339142,101.043129 
	C174.312851,100.607887 174.548706,100.053215 175.098358,99.466049 
	C175.141861,99.930267 174.871582,100.426979 174.339142,101.043129 
z"/>
<path fill="#2E304B" opacity="1.000000" stroke="none" 
	d="
M190.576111,69.848557 
	C190.414429,70.186226 189.939255,70.548691 189.146820,70.912445 
	C189.307236,70.566940 189.784927,70.220139 190.576111,69.848557 
z"/>
<path fill="#2E304B" opacity="1.000000" stroke="none" 
	d="
M179.336060,96.075897 
	C179.300217,95.859085 179.526352,95.601700 180.014313,95.317932 
	C180.050110,95.539467 179.824081,95.787392 179.336060,96.075897 
z"/>
<path fill="#0D0E2D" opacity="1.000000" stroke="none" 
	d="
M405.980408,87.707832 
	C405.747589,87.739166 405.491302,87.479248 405.169922,86.946472 
	C405.388824,86.921272 405.672852,87.168930 405.980408,87.707832 
z"/>
<path fill="#0D0E2D" opacity="1.000000" stroke="none" 
	d="
M356.190308,133.520630 
	C355.977264,133.630905 355.637024,133.493942 355.169891,133.103745 
	C355.383026,132.991470 355.723053,133.132446 356.190308,133.520630 
z"/>
<path fill="#0D0E2D" opacity="1.000000" stroke="none" 
	d="
M408.926636,93.719711 
	C408.688751,93.722694 408.482483,93.457100 408.281464,92.930466 
	C408.510559,92.929993 408.734406,93.190559 408.926636,93.719711 
z"/>
<path fill="#0D0E2D" opacity="1.000000" stroke="none" 
	d="
M351.100098,128.671906 
	C350.895355,128.686279 350.620758,128.434891 350.345734,127.892029 
	C350.573639,127.869095 350.801941,128.137619 351.100098,128.671906 
z"/>
<path fill="#0D0E2D" opacity="1.000000" stroke="none" 
	d="
M347.967651,121.737747 
	C347.758362,121.823410 347.576508,121.668800 347.440674,121.480919 
	C347.411774,121.440872 347.550323,121.279739 347.768799,121.077644 
	C347.954437,121.149117 347.983002,121.317345 347.967651,121.737747 
z"/>
<path fill="#2E304B" opacity="1.000000" stroke="none" 
	d="
M176.578156,98.249802 
	C176.507797,98.015930 176.665863,97.735893 177.081970,97.467155 
	C177.292435,97.815979 177.114624,98.057709 176.578156,98.249802 
z"/>
<path fill="#2E304B" opacity="1.000000" stroke="none" 
	d="
M175.734772,99.238129 
	C175.616730,99.024483 175.709091,98.721313 176.055084,98.377060 
	C176.315170,98.663948 176.193985,98.934822 175.734772,99.238129 
z"/>
<path fill="#FCFCFD" opacity="1.000000" stroke="none" 
	d="
M69.079559,121.698242 
	C65.103104,112.749641 66.147049,104.696106 72.351707,97.734268 
	C78.292175,91.068878 86.028519,89.035049 94.550591,91.605774 
	C103.565987,94.325317 108.365173,100.995384 109.787575,110.074249 
	C111.128998,118.636322 105.081284,128.323395 96.454292,131.941299 
	C87.852448,135.548645 77.456596,132.979309 71.704369,125.775581 
	C70.776146,124.613129 70.031967,123.303719 69.079559,121.698242 
z"/>
<path fill="#FCFCFD" opacity="1.000000" stroke="none" 
	d="
M356.308411,90.152191 
	C370.658417,82.415367 383.558655,88.777374 386.636566,104.878586 
	C373.817993,104.878586 361.024658,104.878586 347.820374,104.878586 
	C348.394714,98.719719 351.365265,94.091988 356.308411,90.152191 
z"/>
</svg>