<?xml version="1.0" standalone="no"?>
<!DOCTYPE svg PUBLIC "-//W3C//DTD SVG 20010904//EN"
 "http://www.w3.org/TR/2001/REC-SVG-20010904/DTD/svg10.dtd">
<svg version="1.0" xmlns="http://www.w3.org/2000/svg"
 width="690.000000pt" height="216.000000pt" viewBox="0 0 690.000000 216.000000"
 preserveAspectRatio="xMidYMid meet">

<g transform="translate(0.000000,216.000000) scale(0.100000,-0.100000)"
fill="#000000" stroke="none">
<path d="M2100 1700 l0 -90 503 2 502 3 -497 2 -498 3 0 79 c0 67 3 80 18 84
13 4 11 5 -5 6 -22 1 -23 -2 -23 -89z"/>
<path d="M2393 1783 c130 -2 344 -2 475 0 130 1 23 2 -238 2 -261 0 -368 -1
-237 -2z"/>
<path d="M5210 1205 l0 -585 129 0 130 0 3 279 c3 266 4 281 24 308 47 63 150
86 220 50 67 -34 68 -42 74 -352 l5 -280 133 -3 132 -3 0 289 c0 159 -5 314
-10 343 -14 71 -54 135 -114 180 -61 46 -121 64 -211 63 -82 -1 -140 -25 -210
-86 l-45 -40 0 211 0 211 -130 0 -130 0 0 -585z"/>
<path d="M340 905 l0 -595 130 0 130 0 0 211 0 211 46 -41 c65 -57 135 -81
238 -81 101 0 167 19 240 68 107 72 172 190 183 333 19 251 -125 446 -358 482
-119 18 -218 -10 -304 -85 l-45 -40 0 66 0 66 -130 0 -130 0 0 -595z m637 332
c61 -32 113 -119 113 -188 0 -125 -128 -232 -251 -213 -58 10 -128 60 -157
114 -33 63 -29 160 11 216 65 94 183 123 284 71z"/>
<path d="M1430 1060 l0 -440 129 0 129 0 4 228 3 228 30 59 c40 79 96 109 196
109 l69 -1 0 123 c0 67 -4 125 -9 129 -15 8 -87 -20 -133 -52 -56 -38 -91 -89
-124 -181 -15 -42 -30 -80 -33 -84 -3 -4 -5 67 -3 157 l3 165 -131 0 -130 0 0
-440z"/>
<path d="M2100 1060 l0 -440 130 0 130 0 0 440 0 440 -130 0 -130 0 0 -440z"/>
<path d="M2510 1395 l0 -105 54 0 54 0 4 -257 c3 -252 4 -259 27 -300 32 -56
84 -90 156 -104 93 -17 265 8 286 43 11 16 12 201 1 196 -105 -46 -156 -47
-192 -1 -19 24 -20 39 -20 224 l0 199 110 0 110 0 0 105 0 105 -295 0 -295 0
0 -105z"/>
<path d="M3574 1489 c-159 -26 -293 -142 -345 -296 -18 -54 -21 -82 -17 -166
3 -89 8 -111 35 -169 42 -90 113 -159 206 -204 189 -89 433 -61 571 66 l46 42
-72 59 c-40 33 -76 59 -80 59 -4 0 -26 -13 -50 -29 -24 -15 -60 -34 -82 -41
-54 -17 -175 -8 -216 16 -41 24 -87 80 -96 117 l-6 28 320 -3 321 -3 5 31 c9
43 -12 177 -35 238 -55 139 -173 230 -329 255 -74 12 -104 12 -176 0z m169
-203 c18 -7 46 -28 61 -47 27 -32 35 -47 50 -96 l7 -23 -200 0 -200 0 14 40
c20 57 53 97 99 120 48 23 122 26 169 6z"/>
<path d="M4610 1489 c-78 -13 -191 -70 -250 -125 -61 -57 -116 -162 -131 -251
-21 -122 21 -261 106 -352 187 -200 513 -215 713 -34 l53 48 -72 55 c-101 77
-94 75 -142 40 -46 -33 -122 -60 -167 -60 -52 0 -127 30 -163 65 -50 49 -70
97 -70 175 -2 211 234 313 395 171 l36 -31 88 71 c49 39 91 73 93 75 14 13
-142 114 -209 135 -72 22 -207 31 -280 18z"/>
<path d="M6223 841 c-40 -25 -53 -49 -53 -98 0 -85 74 -140 154 -113 77 25
103 129 48 191 -37 41 -102 50 -149 20z"/>
</g>
</svg>
