<svg width="690" height="216" viewBox="0 0 690 216" fill="none" xmlns="http://www.w3.org/2000/svg">
<path d="M118.699 76.2969C128.367 86.3323 131.917 98.0228 132.031 111.773C131.527 124.209 128.342 134.528 120 144C119.34 144 118.68 144 118 144C118 144.66 118 145.32 118 146C109.273 152.758 98.0846 157.201 87 156C85.5614 155.859 85.5614 155.859 84.0938 155.715C74.5832 154.478 68.3686 150.936 61 145C61.0079 146.81 61.0079 146.81 61.0159 148.656C61.0339 153.116 61.0454 157.575 61.0549 162.035C61.06 163.968 61.0668 165.901 61.0754 167.835C61.0875 170.607 61.0932 173.38 61.0977 176.152C61.1028 177.022 61.108 177.892 61.1133 178.788C61.1135 180.859 61.0621 182.93 61 185C60.67 185.33 60.34 185.66 60 186C51.09 186 42.18 186 33 186C32.67 146.4 32.34 106.8 32 66C41.57 66 51.14 66 61 66C61 69.96 61 73.92 61 78C61.33 77.34 61.66 76.68 62 76C62.66 76 63.32 76 64 76C64.33 75.01 64.66 74.02 65 73C80.628 60.1241 103.976 63.7686 118.699 76.2969ZM70.6875 97.375C66.6816 102.417 65.503 107.335 65.6953 113.703C66.6183 120.661 70.6046 125.278 75.9258 129.586C80.7072 132.846 85.2796 133.492 90.9531 132.535C97.7018 130.771 102.047 127.697 106 122C108.794 116.165 108.856 110.342 108 104C105.509 98.0475 101.676 93.9611 96 91C85.9349 87.8719 77.7085 89.7632 70.6875 97.375Z" fill="black"/>
<path d="M520 36C529.24 36 538.48 36 548 36C548 49.86 548 63.72 548 78C549.98 75.525 549.98 75.525 552 73C560.206 66.6225 568.238 64.3234 578.5 65.5625C589.243 67.5823 596.704 71.9488 603 81C606.308 87.3164 607.129 94.0549 607.114 101.097C607.113 102.868 607.113 102.868 607.113 104.675C607.108 105.935 607.103 107.194 607.098 108.492C607.096 109.793 607.095 111.094 607.093 112.435C607.09 115.877 607.08 119.32 607.069 122.762C607.058 126.282 607.054 129.801 607.049 133.32C607.039 140.214 607.019 147.107 607 154C597.76 154 588.52 154 579 154C577.791 151.583 577.892 150.1 577.918 147.402C577.925 146.447 577.931 145.492 577.938 144.508C577.949 143.471 577.961 142.435 577.973 141.367C577.985 139.177 577.998 136.987 578.01 134.797C578.035 131.341 578.062 127.885 578.096 124.429C578.126 121.096 578.144 117.763 578.16 114.43C578.174 113.405 578.187 112.381 578.201 111.326C578.269 101.365 578.269 101.365 574.125 92.5625C569.417 89.1008 563.608 89.655 558 90C553.608 90.8581 553.608 90.8581 550.688 93.9375C550.461 94.6181 550.234 95.2987 550 96C549.67 96.99 549.34 97.98 549 99C548.884 100.794 548.823 102.592 548.795 104.389C548.775 105.49 548.755 106.591 548.734 107.726C548.709 109.507 548.709 109.507 548.684 111.324C548.663 112.541 548.642 113.757 548.621 115.011C548.555 118.903 548.496 122.795 548.438 126.688C548.394 129.324 548.351 131.96 548.307 134.596C548.199 141.064 548.098 147.532 548 154C539 155 539 155 520 154C520 115.06 520 76.12 520 36Z" fill="black"/>
<path d="M366.312 65.8125C367.034 65.8002 367.755 65.788 368.498 65.7754C380.264 65.7437 391.297 70.0716 400 78C408.056 86.4735 412.402 98.4178 413 110C412.505 114.95 412.505 114.95 412 120C390.88 120 369.76 120 348 120C351 127.001 352.678 130.034 359.062 133.812C366.314 136.577 374.822 135.707 381.953 133C385.294 131.368 388.081 129.298 391 127C395.508 129.067 399.085 131.498 402.875 134.687C403.842 135.496 404.809 136.304 405.805 137.137C406.891 138.059 406.891 138.059 408 139C403.463 147.385 395.234 151.621 386.378 154.558C371.918 158.64 355.301 157.333 342.02 150.457C331.188 144.069 324.887 135.55 320.887 123.703C317.632 110.11 320.193 97.2129 327.125 85.25C333.951 75.1922 343.687 69.4606 355.336 66.3828C358.995 65.857 362.624 65.8157 366.312 65.8125ZM350.223 94.2266C347.96 97.5091 347 100.025 347 104C359.87 104 372.74 104 386 104C382.696 93.5837 382.696 93.5837 374.75 87.125C364.927 84.1781 356.73 86.0017 350.223 94.2266Z" fill="black"/>
<path d="M472.187 65.5625C473.102 65.5523 474.016 65.5422 474.958 65.5317C483.931 65.6465 491.614 67.7603 499.312 72.4375C500.278 73.0137 501.244 73.5899 502.238 74.1836C509.696 79.0888 509.696 79.0888 511 83C508.45 85.1611 505.883 87.301 503.312 89.4375C502.591 90.0492 501.87 90.6608 501.127 91.291C500.421 91.8743 499.715 92.4576 498.988 93.0586C498.344 93.598 497.7 94.1374 497.036 94.6931C494.664 96.2154 492.793 96.7079 490 97C488.262 95.8906 488.262 95.8906 486.687 94.25C482.101 89.9716 477.706 88.2899 471.5 87.625C464.324 88.3939 459.093 90.9071 454 96C450.008 102.744 449.108 109.252 450 117C451.92 123.094 454.744 127.742 460.246 131.105C466.675 134.385 472.452 134.91 479.375 132.875C484.449 131.067 488.674 128.16 493 125C499.729 128.439 505.249 133.133 511 138C509.14 143.578 502.897 146.956 498 150C484.957 156.461 470.043 158.719 455.684 155.094C448.815 152.741 442.657 149.557 437 145C436.388 144.523 435.775 144.046 435.145 143.555C428.518 137.732 423.101 127.767 422 119C421.181 104.343 423.084 92.7975 432.594 81.0273C443.267 69.5733 457.016 65.6819 472.187 65.5625Z" fill="black"/>
<path d="M250 66C270.13 66 290.26 66 311 66C311 72.93 311 79.86 311 87C303.74 87 296.48 87 289 87C289.028 92.7675 289.071 98.5309 289.153 104.297C289.176 106.259 289.19 108.22 289.196 110.181C289.205 113.002 289.246 115.82 289.293 118.641C289.289 119.517 289.285 120.393 289.281 121.296C289.383 126.447 289.383 126.447 292.372 130.554C295.708 132.39 297.223 132.581 301 132C304.084 130.827 307.047 129.47 310 128C312.321 130.321 311.328 135.761 311.375 138.875C311.431 140.261 311.431 140.261 311.488 141.676C311.521 144.205 311.471 146.515 311 149C305.69 154.269 296.261 154.39 289.125 154.375C288.338 154.373 287.551 154.372 286.74 154.37C279.103 154.21 273.659 152.148 267.125 148.312C260.937 141.579 260.436 133.956 260.609 125.184C260.615 124.087 260.621 122.989 260.627 121.859C260.649 118.385 260.699 114.912 260.75 111.438C260.77 109.07 260.788 106.702 260.805 104.334C260.849 98.5556 260.918 92.778 261 87C257.37 87 253.74 87 250 87C250 80.07 250 73.14 250 66Z" fill="black"/>
<path d="M142 66C150.91 66 159.82 66 169 66C169 75.9 169 85.8 169 96C170.65 91.71 172.3 87.42 174 83C177.952 75.0954 183.519 70.688 191.438 66.8047C194.4 65.8745 196.912 65.9453 200 66C200.029 70.1458 200.047 74.2916 200.062 78.4375C200.071 79.6215 200.079 80.8055 200.088 82.0254C200.091 83.1501 200.094 84.2748 200.098 85.4336C200.103 86.4757 200.108 87.5179 200.114 88.5916C200 91 200 91 199 92C196.647 92.1068 194.292 92.1851 191.938 92.25C185.554 92.5741 180.657 93.3789 176 98C168.098 108.398 169.597 123.254 169.375 135.688C169.337 137.468 169.298 139.249 169.258 141.029C169.163 145.353 169.078 149.676 169 154C160.269 156.183 150.992 154.391 142 154C142 124.96 142 95.92 142 66Z" fill="black"/>
<path d="M209 66C218.24 66 227.48 66 237 66C237 95.04 237 124.08 237 154C227.848 155.83 218.325 154.405 209 154C209 124.96 209 95.92 209 66Z" fill="black"/>
<path d="M209 36C242.66 36 276.32 36 311 36C311 42.27 311 48.54 311 55C308.246 55.9181 306.708 56.1145 303.881 56.0823C303.044 56.0753 302.207 56.0682 301.344 56.061C300.429 56.048 299.514 56.0351 298.572 56.0217C297.605 56.0121 296.639 56.0025 295.644 55.9926C292.446 55.9596 289.249 55.9193 286.051 55.8789C283.835 55.8546 281.62 55.8308 279.405 55.8074C273.57 55.7445 267.736 55.6754 261.901 55.6051C255.949 55.5344 249.997 55.4696 244.045 55.4043C232.363 55.2752 220.682 55.1391 209 55C209 48.73 209 42.46 209 36Z" fill="#03AAA7"/>
<path d="M200 66C200.029 70.1458 200.047 74.2916 200.062 78.4375C200.071 79.6215 200.079 80.8055 200.088 82.0254C200.091 83.1501 200.094 84.2748 200.098 85.4336C200.103 86.4757 200.108 87.5179 200.114 88.5916C200 91 200 91 199 92C196.647 92.1068 194.292 92.1851 191.938 92.25C183.783 92.638 179.378 94.8756 173.5 100.313C173.005 100.869 172.51 101.426 172 102C170.68 101.34 169.36 100.68 168 100C170.845 87.261 175.609 76.7625 186.5 69.4453C191.245 66.7019 194.517 65.9029 200 66Z" fill="black"/>
<path d="M209 36C242.66 36 276.32 36 311 36C311 42.2433 311 48.4866 311 54.9191C308.246 55.8332 306.708 56.0289 303.881 55.9968C303.044 55.9897 302.207 55.9827 301.344 55.9755C300.429 55.9626 299.514 55.9497 298.572 55.9365C297.605 55.9269 296.639 55.9173 295.644 55.9075C292.446 55.8746 289.249 55.8344 286.051 55.7942C283.835 55.77 281.62 55.7463 279.405 55.723C273.57 55.6604 267.736 55.5916 261.901 55.5216C255.949 55.4512 249.997 55.3867 244.045 55.3217C232.363 55.1931 220.682 55.0576 209 54.9191C209 48.6758 209 42.4325 209 36ZM212 38.9872C212 43.5875 212 48.1879 212 52.9276C224.222 52.9737 236.443 53.0091 248.665 53.0308C254.339 53.0412 260.014 53.0553 265.688 53.0778C271.16 53.0994 276.633 53.1114 282.105 53.1165C284.197 53.1202 286.288 53.1274 288.38 53.1382C291.302 53.1525 294.223 53.1546 297.144 53.1537C298.016 53.1608 298.888 53.168 299.786 53.1754C304.371 53.3711 304.371 53.3711 308 50.9361C308 46.993 308 43.0498 308 38.9872C276.32 38.9872 244.64 38.9872 212 38.9872Z" fill="#20A09F"/>
<path d="M521 99C521.33 99 521.66 99 522 99C522 116.49 522 133.98 522 152C529.92 152 537.84 152 546 152C546.33 134.84 546.66 117.68 547 100C547.33 100 547.66 100 548 100C548 117.82 548 135.64 548 154C539 155 539 155 521 154C521 135.85 521 117.7 521 99Z" fill="black"/>
<path d="M309 39C309.33 39 309.66 39 310 39C310 44.28 310 49.56 310 55C307.664 55 305.33 54.9865 302.995 54.962C302.183 54.9536 301.371 54.9452 300.534 54.9365C299.648 54.9272 298.761 54.9178 297.847 54.9082C296.91 54.8984 295.973 54.8887 295.008 54.8786C291.908 54.8463 288.807 54.8138 285.707 54.7812C283.559 54.7588 281.411 54.7364 279.263 54.714C273.606 54.6549 267.949 54.5957 262.292 54.5364C256.521 54.476 250.75 54.4157 244.979 54.3555C233.652 54.2372 222.326 54.1186 211 54C211 53.67 211 53.34 211 53C243.34 53 275.68 53 309 53C309 48.38 309 43.76 309 39Z" fill="#20A09F"/>
<path d="M341 72C341.66 72.33 342.32 72.66 343 73C342.34 73.6394 341.68 74.2788 341 74.9375C337.143 78.7829 333.592 82.9092 330 87C329.34 86.67 328.68 86.34 328 86C330.891 79.4947 335.233 75.8815 341 72Z" fill="#20A09F"/>
<path d="M442 73C442.66 73.33 443.32 73.66 444 74C443.25 75.9375 443.25 75.9375 442 78C441.381 78.1238 440.762 78.2475 440.125 78.375C437.628 78.8624 437.628 78.8624 436 82C434 85 434 85 431.75 85.875C431.173 85.9163 430.595 85.9575 430 86C431.55 82.116 434.005 79.9702 437.125 77.25C438.035 76.4508 438.945 75.6516 439.883 74.8281C440.931 73.9232 440.931 73.9232 442 73Z" fill="#20A09F"/>
<path d="M401 134C403.31 135.65 405.62 137.3 408 139C406.515 141.475 406.515 141.475 405 144C404.34 143.67 403.68 143.34 403 143C402.367 140.934 402.367 140.934 401.875 138.438C401.707 137.611 401.54 136.785 401.367 135.934C401.246 135.296 401.125 134.657 401 134Z" fill="#20A09F"/>
<path d="M430 137C434.248 137.472 436.2 139.967 439 143C438.34 143.66 437.68 144.32 437 145C435.83 143.857 434.664 142.711 433.5 141.562C432.85 140.924 432.201 140.286 431.531 139.629C430 138 430 138 430 137Z" fill="#20A09F"/>
<path d="M390 149C391.65 149.33 393.3 149.66 395 150C391.715 152.19 388.793 152.998 385 154C385 153.34 385 152.68 385 152C386.65 151.67 388.3 151.34 390 151C390 150.34 390 149.68 390 149Z" fill="#20A09F"/>
<path d="M73 69C73 69.66 73 70.32 73 71C72.34 71 71.68 71 71 71C70.67 71.99 70.34 72.98 70 74C68.02 74.33 66.04 74.66 64 75C69.8 69 69.8 69 73 69Z" fill="black"/>
<path d="M556 70C556.66 70.33 557.32 70.66 558 71C556.294 73.7839 555.524 74.8538 552.312 75.75C551.168 75.8738 551.168 75.8738 550 76C552 74 554 72 556 70Z" fill="#20A09F"/>
</svg>
